<?xml version="1.0" standalone="no"?>
<!DOCTYPE svg PUBLIC "-//W3C//DTD SVG 20010904//EN"
 "http://www.w3.org/TR/2001/REC-SVG-20010904/DTD/svg10.dtd">
<svg version="1.0" xmlns="http://www.w3.org/2000/svg"
 width="144.000000pt" height="144.000000pt" viewBox="0 0 144.000000 144.000000"
 preserveAspectRatio="xMidYMid meet">
<metadata>
Created by potrace 1.14, written by Peter Selinger 2001-2017
</metadata>
<g transform="translate(0.000000,144.000000) scale(0.100000,-0.100000)"
fill="#000000" stroke="none">
<path d="M65 763 c32 -131 153 -266 307 -344 113 -57 197 -74 363 -74 144 1
154 2 249 35 204 70 358 213 405 378 l10 32 -47 0 -47 0 -29 -63 c-57 -122
-199 -229 -366 -273 -89 -24 -273 -24 -360 -1 -168 45 -311 150 -371 273 l-32
64 -44 0 c-44 0 -45 -1 -38 -27z"/>
<path d="M200 776 c0 -7 19 -42 41 -75 66 -99 173 -168 319 -208 86 -23 252
-22 340 1 167 45 304 150 349 269 l11 27 -530 0 c-445 0 -530 -2 -530 -14z
m110 -14 c0 -5 -7 -17 -15 -28 -14 -19 -14 -19 -15 2 0 11 3 24 7 27 9 10 23
9 23 -1z m480 -2 c0 -5 -11 -10 -25 -10 -14 0 -25 5 -25 10 0 6 11 10 25 10
14 0 25 -4 25 -10z m350 -37 c0 -14 -2 -14 -20 2 -11 10 -20 22 -20 27 0 5 9
4 20 -2 11 -6 20 -18 20 -27z m-580 17 c0 -12 -28 -25 -36 -17 -9 9 6 27 22
27 8 0 14 -5 14 -10z m-155 -40 c-3 -5 -15 -10 -25 -10 -10 0 -22 5 -25 10 -4
6 7 10 25 10 18 0 29 -4 25 -10z m565 -4 c0 -7 -7 -19 -15 -26 -16 -13 -20 -3
-9 24 8 20 24 21 24 2z m-195 -26 c14 -16 15 -20 4 -20 -16 0 -39 19 -39 32 0
14 16 9 35 -12z m-262 -82 c-13 -12 -25 -19 -29 -15 -10 10 16 37 34 37 13 0
12 -4 -5 -22z m157 -29 c0 -11 -4 -17 -10 -14 -5 3 -10 15 -10 26 0 11 5 17
10 14 6 -3 10 -15 10 -26z m234 12 c8 -12 -20 -22 -39 -15 -19 8 -9 24 15 24
10 0 21 -4 24 -9z"/>
</g>
</svg>
